<?xml version="1.0" encoding="UTF-8"?> <svg xmlns="http://www.w3.org/2000/svg" width="850" height="520.891" viewBox="0 0 850 520.891"><g id="b" transform="translate(0.03 -0.01)"><g id="c" transform="translate(-0.03 0.01)"><g id="Group_16" data-name="Group 16"><g id="Group_11" data-name="Group 11" transform="translate(25.086 138.956)"><g id="Group_9" data-name="Group 9"><path id="Path_29" data-name="Path 29" d="M31.77,79.554H15.854v33.1H4.32V28.46H29.579c17.07,0,27.565,11.3,27.565,25.951C57.144,67.79,45.38,79.554,31.77,79.554ZM27.849,39.3H15.854V68.712H28.541c9.688,0,16.608-5.421,16.608-14.994S38.575,39.3,27.849,39.3Z" transform="translate(-4.32 -28.46)" fill="#11294b"></path><path id="Path_30" data-name="Path 30" d="M24.837,61.258C25.183,68.985,30.6,75.1,39.023,75.1c7.5,0,11.649-2.422,16.032-5.767l6.689,6.92c-6,5.19-12.687,9-22.836,9-14.071,0-25.028-9.688-25.028-25.835C13.88,45.342,24.03,34.5,38.447,34.5S62.552,45.688,62.552,61.258H24.837ZM37.985,44.3c-6.228,0-11.418,3.345-12.687,8.65H50.672C48.942,47.418,44.1,44.3,37.985,44.3Z" transform="translate(41.251 0.331)" fill="#11294b"></path><path id="Path_31" data-name="Path 31" d="M48.1,85.248c-14.186,0-24.451-10.034-24.451-25.72C23.65,46.61,32.877,34.5,47.871,34.5S72.783,46.034,72.783,59.067c0,14.532-10.034,26.181-24.682,26.181Zm-.231-40.6c-8.189,0-13.033,6.689-13.033,14.878,0,9.573,4.844,15.57,12.918,15.57,9.8,0,13.84-6.689,13.84-15.34C61.6,50.416,56.29,44.65,47.871,44.65Z" transform="translate(87.822 0.331)" fill="#11294b"></path><path id="Path_32" data-name="Path 32" d="M58.547,85.248a16.47,16.47,0,0,1-13.61-6.574v25.835H33.98V35.884H44.937V41.3a16.357,16.357,0,0,1,13.61-6.8C71,34.5,79.768,46.264,79.768,60.22S71,85.248,58.547,85.248ZM56.47,44.65c-7.612,0-12.456,7.381-12.456,15.455,0,7.612,4.729,14.994,12.341,14.994s12.226-7.381,12.226-15.34S64.2,44.65,56.47,44.65Z" transform="translate(137.063 0.331)" fill="#11294b"></path><path id="Path_33" data-name="Path 33" d="M43.79,112.655V28.46H54.747v84.2Z" transform="translate(183.825 -28.46)" fill="#11294b"></path><path id="Path_34" data-name="Path 34" d="M58.457,61.258C58.8,68.985,64.224,75.1,72.643,75.1c7.5,0,11.649-2.422,16.032-5.767l6.689,6.92c-6,5.19-12.687,9-22.836,9C58.457,85.248,47.5,75.56,47.5,59.413,47.5,45.342,57.65,34.5,72.067,34.5S96.172,45.688,96.172,61.258ZM71.605,44.3c-6.228,0-11.418,3.345-12.687,8.65H84.292C82.562,47.418,77.718,44.3,71.605,44.3Z" transform="translate(201.51 0.331)" fill="#11294b"></path></g><g id="Group_10" data-name="Group 10" transform="translate(224.098 277.037)"><path id="Path_35" data-name="Path 35" d="M70.63,127.594H54.714v33.1H43.18V76.5H68.439C85.508,76.5,96,87.8,96,102.451,96,115.83,84.24,127.594,70.63,127.594ZM66.708,87.342H54.714v29.411H67.4c9.688,0,16.608-5.421,16.608-14.994s-6.574-14.417-17.3-14.417Z" transform="translate(-43.18 -76.5)" fill="#11294b"></path><path id="Path_36" data-name="Path 36" d="M63.687,109.3c.346,7.728,5.767,13.84,14.186,13.84,7.5,0,11.649-2.422,16.032-5.767l6.689,6.92c-6,5.19-12.687,9-22.836,9-14.071,0-25.028-9.688-25.028-25.835C52.73,93.382,62.88,82.54,77.3,82.54S101.4,93.728,101.4,109.3ZM76.835,92.344c-6.228,0-11.418,3.345-12.687,8.65H89.522C87.792,95.458,82.948,92.344,76.835,92.344Z" transform="translate(2.343 -47.709)" fill="#11294b"></path><path id="Path_37" data-name="Path 37" d="M86.951,133.3c-14.186,0-24.451-10.034-24.451-25.72,0-12.918,9.227-25.028,24.22-25.028s24.913,11.534,24.913,24.566C111.633,121.649,101.6,133.3,86.951,133.3ZM86.72,92.7c-8.189,0-13.033,6.69-13.033,14.878,0,9.573,4.844,15.57,12.918,15.57,9.8,0,13.84-6.689,13.84-15.34C100.445,98.466,95.14,92.7,86.72,92.7Z" transform="translate(48.914 -47.661)" fill="#11294b"></path><path id="Path_38" data-name="Path 38" d="M97.407,133.3a16.47,16.47,0,0,1-13.61-6.574v25.835H72.84V83.934H83.8v5.421a16.357,16.357,0,0,1,13.61-6.8c12.456,0,21.222,11.764,21.222,25.72S109.863,133.3,97.407,133.3ZM95.331,92.7c-7.612,0-12.456,7.382-12.456,15.455,0,7.612,4.729,14.994,12.341,14.994s12.226-7.382,12.226-15.34S103.058,92.7,95.331,92.7Z" transform="translate(98.203 -47.661)" fill="#11294b"></path><path id="Path_39" data-name="Path 39" d="M82.64,160.705V76.51H93.6v84.2Z" transform="translate(144.918 -76.452)" fill="#11294b"></path><path id="Path_40" data-name="Path 40" d="M97.317,109.3c.346,7.728,5.767,13.84,14.186,13.84,7.5,0,11.649-2.422,16.032-5.767l6.689,6.92c-6,5.19-12.687,9-22.836,9-14.071,0-25.028-9.688-25.028-25.835,0-14.071,10.15-24.913,24.567-24.913s24.105,11.188,24.105,26.758Zm13.148-16.954c-6.228,0-11.418,3.345-12.687,8.65h25.374c-1.73-5.536-6.574-8.65-12.687-8.65Z" transform="translate(162.65 -47.709)" fill="#11294b"></path></g></g><g id="Group_12" data-name="Group 12" transform="translate(0 268.959)"><path id="Path_41" data-name="Path 41" d="M106.54,101.08a4.791,4.791,0,0,0,1.615.346c1.961-.231,3.864,1.672,4.844,3.345s1.442,1.153,1.442,3.864c0,1.788-.634,2.364-1.269,2.422-10.669,1.1-19.607,4.786-28.661,7.382-1.788.519-2.134,1.038-2.6,1.9-2.883,5.305-4.037,11.764-6,17.819-3.575,11.361-4.844,22.721-6.17,33.678-.173,1.326-2.134,2.307-3.748,2.48a18.543,18.543,0,0,1-6.343-.634c-1.961-.634-2.768-3.287-3.229-5.478a11.152,11.152,0,0,1-.346-2.422,14.1,14.1,0,0,1,.634-4.613c2.768-9.342,4.671-21.568,7.612-30.564a14.6,14.6,0,0,0,.634-3.806,1.45,1.45,0,0,0-1.788-1.615l-22.664,6.92c-1.615.461-1.961.865-2.422,1.73-3.575,6.343-4.844,18.973-6.17,21.683a9.273,9.273,0,0,0-.634,4.094c0,2.941.807,5.421.807,7.035,0,2.883-.346,4.729-3.229,5.017-1.442.173-3.748.058-4.556-.519-1.961-1.384-2.768-.865-4.556-2.134-1.153-.865-1.442-1.615-2.249-1.557s-.98-.4-.98-1.5a34.677,34.677,0,0,1,.634-6.055l.461-2.653c.634-4.094,3.056-14.763,3.056-16.839,0-.634-.173-.807-.634-.75-1.153.115-5.017,1.5-8.247,1.845-3.748.4-7.266.115-10.034-2.826-.98-1.038-1.788-6.113-1.788-6.92a2.726,2.726,0,0,1,2.6-2.537c1.961-.231,4.844.923,7.151.692a110.442,110.442,0,0,0,14.244-3.921,2.408,2.408,0,0,0,1.615-1.442c2.768-6.113,3.748-13.206,6.459-19.953,6.343-15.57,13.091-32.006,20.876-46.884.807-1.557,1.961-2.134,4.844-2.48,1.615-.173,2.422,1.038,6.459,1.9a2.961,2.961,0,0,1,2.422,2.48,5.189,5.189,0,0,1-.461,2.48C55.331,78.762,52.39,93.814,42.875,113.94a7.632,7.632,0,0,0-.98,3.806c0,.807.346,1.557.98,1.5a206.659,206.659,0,0,0,24.74-7.958,3.322,3.322,0,0,0,2.249-2.364c5.651-12.572,9.573-25.951,13.783-39.157a2.933,2.933,0,0,1,1.153-1.73c1.153-.923,1.961-2.307,4.21-2.537,1.615-.173,3.056.173,5.478-.115,2.134-.231,4.671.98,4.671,3.229A23.029,23.029,0,0,1,97.544,76.4C94.315,85.8,90.1,94.044,86.876,103.56c0,.807.173,1.269,1.153,1.153,2.422-.231,10.034-4.152,12.8-4.44a11.514,11.514,0,0,1,5.536.577Z" transform="translate(0.03 -25.226)" fill="#5bb7b2"></path><path id="Path_42" data-name="Path 42" d="M44.935,146.328a14.68,14.68,0,0,1-6.17-.461,101.4,101.4,0,0,1-10.38-3.46c-3.229-1.442-6.286-5.19-8.074-10.323A45.491,45.491,0,0,1,18.35,119.8a19.785,19.785,0,0,1,.807-5.421c4.556-17.012,15.57-32.409,27.854-46.826,2.768-3.229,9.4-8.3,17.3-9.112a25.26,25.26,0,0,1,9.861.75c1.788.461,5.19,3,5.19,9.515,0,4.21-1.788,7.958-3.691,12.053a36.862,36.862,0,0,1-5.19,8.131c-11.188,13.783-23.817,29.238-37.542,38.292-.807.577-.98.923-.98,1.384a8.758,8.758,0,0,0,3.864,6.4,9.243,9.243,0,0,0,5.017.75c2.768-.288,5.19-1.211,12.456-5.824,11.188-7.151,17.992-16.608,27.681-23.817a6.3,6.3,0,0,1,3.229-1.5c.98-.115,3.229,1.269,3.229,2.883a18.374,18.374,0,0,1-.173,2.134,2.967,2.967,0,0,1-.807,2.364C78.671,119.4,75.268,127.875,50.7,144.079c-2.883,1.9-3.748,2.018-5.824,2.249ZM65.811,70.149c0-1.269,0-1.961-.98-1.845a7.453,7.453,0,0,0-3.4,1.788c-1.788,1.326-1.615.807-3.229,2.422-10.553,10.5-21.856,24.97-25.432,39.733,0,.634.173.807.346.75.346,0,.634-.231,1.153-.577,9.573-8.3,17.473-18.05,24.74-27.565,2.422-3.172,1.788-3.575,3.864-7.035,1.615-2.6,2.941-4.844,2.941-7.728Z" transform="translate(87.644 -10.731)" fill="#5bb7b2"></path><path id="Path_43" data-name="Path 43" d="M29.271,165.683a27.718,27.718,0,0,1-.461-5.478c0-7.439,3.4-15.282,6.978-24.855,6.978-18.857,21.395-46.307,33.678-68.625C72.234,61.766,73.214,52.6,79.5,51.9c2.249-.231,3.575-.692,5.363-.865a4.888,4.888,0,0,1,4.21,1.326,7.087,7.087,0,0,1,1.269,4.383,11.764,11.764,0,0,1-1.615,5.824c-14.705,25.374-31.717,48.845-41.29,75.084-2.6,6.92-6.17,13.437-6.17,20.587a19.044,19.044,0,0,0,.807,5.882c.461,1.384,1.788,1.73,3.229,1.615a5.857,5.857,0,0,0,2.768-.923c7.151-5.133,15.051-19.722,22.49-20.472,1.269-.115,5.478.577,5.478,3.114,0,2.134-1.615,2.941-3.229,4.9-8.247,9.8-14.878,22.779-27.392,24.105-1.153.115-14.59-2.018-16.2-10.784Z" transform="translate(137.504 -45.31)" fill="#5bb7b2"></path><path id="Path_44" data-name="Path 44" d="M77.516,82.786c-.173.519-.346,1.153-.173,1.153.346,0,.98-.923,1.326-1.269,7.093-9,14.244-16.9,21.51-21.51,1.615-.98,2.076-1.211,2.6-1.269,4.671-.519,9.573,1.9,13.61,4.094,1.442.807,3.229,2.076,3.229,6.113a47.063,47.063,0,0,1-1.153,11.476c-.346,1.326.173,2.422-.807,5.248-7.785,22.49-12.456,34.485-23.183,45.327-1.153,1.1-3.056,1.442-4.556,1.615-3.748.4-9.4-2.076-11.015-3.518a32.178,32.178,0,0,1-8.42-10.957.887.887,0,0,0-.98-.692c-.346,0-.634.231-.98.923C58.486,139.531,52.95,154.179,47.3,178.572c-.807,3.46.346,5.94-1.961,7.035a15.2,15.2,0,0,1-5.651,1.557,5.4,5.4,0,0,1-5.017-1.73c-.98-1.038-2.134-1.1-2.249-3.46a14.638,14.638,0,0,1,.807-3.633C42.8,146.105,63.5,98.587,69.154,63.467c.461-2.826.98-3,1.961-3.46,1.961-.865,3.748-2.191,6.17-2.422,2.6-.288,5.363.923,5.363,2.653,0,6.8-3.056,14.071-5.19,22.548Zm1.153,19.146a7.171,7.171,0,0,0-1.153,4.786c0,3.575,5.19,16.781,9.227,16.378.461,0,.807-.231,1.269-.807,5.363-5.594,11.476-22.26,11.995-24.221,6-18.915,6.286-25.951,6.286-26.412s-.461-.461-.634-.4a1.9,1.9,0,0,0-1.153.461C93.2,80.191,85.071,91.09,78.612,101.932Z" transform="translate(154.712 -14.141)" fill="#5bb7b2"></path><path id="Path_45" data-name="Path 45" d="M77.221,160.01c-3.4,3.46-9.4,8.765-16.666,9.515-4.844.519-10.38-5.709-12.168-11.534a23.889,23.889,0,0,1-.807-6.69c0-4.037.634-7.67,2.6-13.379,1.153-3.172,1.788-6,2.768-8.362,5.017-12.341,9.688-24.509,15.686-37.6,1.615-3.575,5.017-4.9,8.074-5.248,1.615-.173,3.748-.058,4.844.807A2.456,2.456,0,0,1,82.815,90c0,8.593-6.632,13.321-10.38,21.625-2.768,6.286-7.266,17.762-9.573,23.99C60.094,143.171,59,149.456,59,151.879c0,1.442.173,5.19,2.941,4.9,3.575-.346,5.363-1.557,11.822-6.747,3.864-3.172,5.017-4.094,7.612-4.383a6.774,6.774,0,0,1,4.037.692,2.286,2.286,0,0,1,.98,2.191c0,1.788-.98,2.883-2.6,4.671l-6.632,6.863Zm22.49-103.4a5.123,5.123,0,0,1-.807,3c-2.883,3.864-6.8,8.65-10.38,9a6.851,6.851,0,0,1-6.459-2.537,12.823,12.823,0,0,1,.98-12.4C84.661,51.536,87.6,50.441,91,50.095c2.6-.288,5.651.231,6.8,1.384a6.916,6.916,0,0,1,1.961,5.132Z" transform="translate(226.977 -50.016)" fill="#5bb7b2"></path><path id="Path_46" data-name="Path 46" d="M78.842,61.985c1.269-2.076,1.153-2.364,2.6-3.864a9.041,9.041,0,0,1,5.651-2.191c3.748-.4,5.824.346,6.459,1.73a8.324,8.324,0,0,1,.807,2.826c0,1.788-.807,4.786-3.575,8.016A85.255,85.255,0,0,0,80.4,84.187a277.555,277.555,0,0,0-11.476,26.469,113.037,113.037,0,0,0-3.229,11.649c0,.634,0,1.615.461,1.557.98-.115,1.615-.634,2.768-2.422,21.856-33.39,33.851-41.117,37.426-49.075,2.883-6.459,3.575-7.035,5.651-7.208,2.422-.231,3.229,1.1,5.824.98,1.788,0,3.229,2.076,3.229,4.037a14.325,14.325,0,0,1-1.615,4.383c-5.824,10.15-8.881,16.608-11.3,25.143a77.449,77.449,0,0,0-1.961,14.763c0,2.941.98,5.248,1.269,6.8.461,2.883,4.556,4.556,5.651,5.248,1.269.865,2.422,1.845,2.422,3.46a4.8,4.8,0,0,1-4.21,4.325c-1.269.115-6.459.173-8.42-1.384-2.249-1.845-4.21-2.307-6.286-5.017-1.961-2.364-2.768-5.709-2.768-9.746,0-9.573,1.442-12.456,1.442-12.918,0-.346-.173-.634-.461-.577-.346,0-.461,0-.98.75-6.632,9.457-11.015,15.4-14.878,21.337-3.4,5.19-4.671,5.19-6.978,7.843-1.269,1.615-4.556,2.249-6,2.422-1.961.231-9.573-3.864-11.649-6.228a8.478,8.478,0,0,1-1.153-4.556c0-5.017,1.442-6.286,1.961-9.919.634-4.786,5.19-16.262,7.958-22.837A199.59,199.59,0,0,1,78.785,62.043Z" transform="translate(253.671 -22.347)" fill="#5bb7b2"></path><path id="Path_47" data-name="Path 47" d="M115.961,115.112c0,.461.173.634.634.577a222.6,222.6,0,0,1,27.046-21.971c2.768-1.9,3.056-1.961,3.864-2.018a5.861,5.861,0,0,1,4.21,1.153,3.233,3.233,0,0,1,.98,2.307,3.641,3.641,0,0,1-1.326,2.883c-29.93,25.662-45.788,41.867-54.092,62.339C91.74,174.221,85.8,188.811,83.84,192.56c-3.4,6.69-5.478,7.382-11.649,8.016-3.056.346-7.612-.807-8.419-3.806a12.031,12.031,0,0,1-.461-3.518c0-4.037,2.941-9.688,11.015-23.009C86.608,150,88.742,154.153,106.388,111.478v-.346s-.173-.288-.346-.288a.424.424,0,0,0-.461.231c-7.266,7.727-14.244,16.2-22.375,17.07a12.3,12.3,0,0,1-4.844-.461c-3.4-1.1-6.8-3.806-9.688-6.4-.807-.75-1.153-1.153-1.153-4.556,0-6.978,3.056-11.822,4.671-15.57,1.961-4.383,10.207-15.8,15.859-22.721,17.012-20.876,30.276-23.759,30.91-23.817,6.978-.75,13.264,1.038,16.666,5.19a8.03,8.03,0,0,1,1.788,5.478,13.236,13.236,0,0,1-1.269,6.459C119.306,103.636,115.9,113.208,115.9,115Zm10.38-48.21c0-.346-.346-.634-.346-.923,0-.461,0-.98-1.615-1.442a7.255,7.255,0,0,0-2.768-.173c-2.941.288-5.19,2.191-7.439,4.21-3.229,2.941-4.556,3.229-6.8,5.594-8.765,9-21.395,25.547-24.74,33.851a27.019,27.019,0,0,0-1.961,6.344c0,.634,1.326,1.153,1.961,1.1a6.442,6.442,0,0,0,3.229-1.153c14.59-10.784,30.1-30.218,39.964-46.134a2.133,2.133,0,0,0,.461-1.211Z" transform="translate(301.959 -28.877)" fill="#5bb7b2"></path></g><g id="Group_15" data-name="Group 15" transform="translate(437.896)"><path id="Path_48" data-name="Path 48" d="M101.392,18.255c20.357,44.52,43.943,91.634,85.349,119.084,6.055,3.691,14.59,9,21.337,8.3,1.615-.288,2.537-.461,3.114-1.5.634-1.557.231-3.691-.4-5.824-2.191-7.151-9.342-14.59-14.878-20.011a89.8,89.8,0,0,1-14.475-19.665c-6.747-12.11-7.612-29.757,6.17-37.945,18.05-10.092,39.676.115,54.958,8.3,28.892,15.859,47.345,47,58.706,76.179,7.382,19.665,12.86,39.791,15.224,60.378l-1.326.288c-11.995-45.558-34.659-103.11-78.255-126.466C225.781,73.5,197.293,61.1,190.143,76.9c-2.018,7.151,1.961,14.359,5.824,20.414,8.535,12.8,22.548,21.51,27.277,37.08,2.653,7.439,1.211,17.762-6.574,21.741-15.859,8.189-37.081-8.766-48.9-18.511-11.418-10.092-21.395-22.606-29.872-35.235C121.114,76.558,108.831,47.954,99.95,18.544l1.269-.4h0Z" transform="translate(-2.256 86.412)" fill="#eb9d48"></path><g id="Group_13" data-name="Group 13" transform="translate(0 59.906)"><path id="Path_49" data-name="Path 49" d="M166.147,176.161c-37.369-21.395-65.684-58.245-76.237-100.169a138.16,138.16,0,0,1-3.749-19.838C85.527,42.89,89.679,28.877,101.789,21.5c9.919-5.363,20.7-.692,27.162,6.632l-.692,1.153c-6.574-3.921-15.57-6.747-22.26-1.845-6.228,4.786-8.765,13.437-8.939,21.164-.058,8.074,2.826,15.974,5.017,23.7a222.269,222.269,0,0,0,33.1,65.453c9.63,13.264,20.645,25.547,31.833,37.542l-.98.923h0Z" transform="translate(-68.28 31.455)" fill="#97d5cc"></path><path id="Path_50" data-name="Path 50" d="M149.389,159.848c-31.371-17.07-52.708-49.306-62.627-82.984a132.706,132.706,0,0,1-3.633-19.088C82.264,47.51,86.07,35.919,95.124,30.21c8.131-5.075,18.973-1.9,22.721,6.343l-.923.98c-4.613-4.5-12.11-6.17-17.243-1.615-10.611,9.746-4.5,25.259-.807,36.907a255.769,255.769,0,0,0,26.873,54.093,244.645,244.645,0,0,0,24.624,32.006l-.98.923Z" transform="translate(-83.009 72.392)" fill="#97d5cc"></path><path id="Path_51" data-name="Path 51" d="M168.423,191.371C132.9,167.842,108.16,129.32,97.2,88.261a212.529,212.529,0,0,1-5.709-31.6,52.8,52.8,0,0,1,.634-18.8c2.941-13.552,14.186-28.6,29.584-27.392a23.393,23.393,0,0,1,21.337,22.952c0,1.153.173,4.44.231,5.651l.865,15.513-1.269.4c-1.5-4.9-2.941-9.861-4.152-14.821-1.269-4.844-1.5-10.034-4.786-14.013-12.86-14.936-27.565-1.73-30.1,13.84-1.5,7.093.461,15.282,1.5,22.433,1.326,7.5,3,14.994,4.959,22.375a237.037,237.037,0,0,0,39.618,82.061,263.362,263.362,0,0,0,19.549,23.586l-.98.923h0Z" transform="translate(-45.125 -10.398)" fill="#97d5cc"></path><path id="Path_52" data-name="Path 52" d="M103.153,41.921C94.272,40.883,87.7,44.574,89.6,54.089c1.961,8.246,5.478,16.666,9.227,24.451a224.979,224.979,0,0,0,52.478,70.124c35.466,32.64,82.234,49.191,129.061,59.283v1.326c-24.97-.75-50-4.325-73.584-12.86C159.207,180.324,119.127,144.224,97.5,98.955A159,159,0,0,1,84.872,63.662c-1.672-7.5-2.768-17.473,4.613-22.375,4.325-2.6,9.631-2.191,14.244-.692l-.461,1.269h0Z" transform="translate(-79.966 127.864)" fill="#97d5cc"></path></g><g id="Group_14" data-name="Group 14" transform="translate(211.703)"><path id="Path_53" data-name="Path 53" d="M138.215,22.528C175.584,43.923,203.9,80.772,214.452,122.7a138.148,138.148,0,0,1,3.748,19.838c.634,13.264-3.518,27.277-15.628,34.658-9.919,5.363-20.7.692-27.162-6.632l.692-1.153c6.574,3.921,15.57,6.747,22.26,1.845,6.228-4.786,8.766-13.437,8.938-21.164.058-8.074-2.826-15.974-5.017-23.7a222.272,222.272,0,0,0-33.1-65.453c-9.631-13.264-20.645-25.547-31.833-37.542l.98-.923h0Z" transform="translate(-35.682 107.052)" fill="#5bb7b2"></path><path id="Path_54" data-name="Path 54" d="M143.77,18.2c31.371,17.07,52.708,49.306,62.627,82.984a132.718,132.718,0,0,1,3.633,19.088c.865,10.265-2.941,21.856-11.995,27.565-8.131,5.075-18.973,1.9-22.721-6.343l.923-.98c4.614,4.5,12.11,6.17,17.243,1.615,10.611-9.746,4.5-25.259.807-36.908a255.774,255.774,0,0,0-26.873-54.092A244.627,244.627,0,0,0,142.79,19.123l.98-.923Z" transform="translate(-9.75 86.698)" fill="#5bb7b2"></path><path id="Path_55" data-name="Path 55" d="M133.948,27.1c35.523,23.529,60.263,62.051,71.22,103.11a212.546,212.546,0,0,1,5.709,31.6,52.808,52.808,0,0,1-.634,18.8c-2.941,13.552-14.187,28.6-29.584,27.392a23.393,23.393,0,0,1-21.337-22.952c0-1.153-.173-4.44-.231-5.651l-.865-15.513,1.269-.4c1.5,4.9,2.941,9.861,4.152,14.821,1.269,4.844,1.5,10.034,4.786,14.013,12.86,14.936,27.565,1.73,30.1-13.84,1.5-7.093-.462-15.282-1.5-22.433-1.326-7.5-3-14.994-4.96-22.375A237.034,237.034,0,0,0,152.46,51.609a263.386,263.386,0,0,0-19.55-23.586l.98-.923h0Z" transform="translate(-56.846 129.122)" fill="#5bb7b2"></path><path id="Path_56" data-name="Path 56" d="M296.934,167.362c8.881,1.038,15.455-2.653,13.552-12.168-1.961-8.247-5.479-16.666-9.227-24.451a224.981,224.981,0,0,0-52.478-70.124C213.315,27.979,166.546,11.428,119.72,1.336V.01c24.97.75,50,4.325,73.584,12.86,47.576,16.089,87.655,52.189,109.281,97.459a159,159,0,0,1,12.629,35.293c1.672,7.5,2.768,17.473-4.613,22.375-4.325,2.6-9.631,2.191-14.244.692l.461-1.269h0Z" transform="translate(-119.72 -0.01)" fill="#5bb7b2"></path></g></g></g></g></g></svg> 